<?xml version="1.0" encoding="utf-8"?>
<!-- Generator: Adobe Illustrator 16.0.4, SVG Export Plug-In . SVG Version: 6.00 Build 0)  -->
<!DOCTYPE svg PUBLIC "-//W3C//DTD SVG 1.1//EN" "http://www.w3.org/Graphics/SVG/1.1/DTD/svg11.dtd">
<svg version="1.1" id="Layer_1" xmlns="http://www.w3.org/2000/svg" xmlns:xlink="http://www.w3.org/1999/xlink" x="0px" y="0px"
	 width="250.561px" height="150.675px" viewBox="0 0 250.561 150.675" enable-background="new 0 0 250.561 150.675"
	 xml:space="preserve">
<g>
	<g>
		<polygon fill="#333333" points="72.33,2.675 154.278,2.675 113.304,114.106 		"/>
		<path fill="#C4FF00" d="M152.129,4.675l-20.078,54.354l-18.747,50.856L94.558,59.091L74.479,4.675h38.825h38.588 M156.428,1.675
			h-43.125H70.18l21.562,58.389l21.562,58.514l21.562-58.451L156.428,1.675L156.428,1.675z"/>
	</g>
	<g>
		<polygon fill="#333333" points="166.462,2.675 248.411,2.675 207.436,114.106 		"/>
		<path fill="#C4FF00" d="M246.261,4.675l-20.078,54.354l-18.747,50.856l-18.747-50.794L168.611,4.675h38.825h38.456 M250.561,1.675
			h-43.125h-43.124l21.562,58.389l21.562,58.514l21.563-58.451L250.561,1.675L250.561,1.675z"/>
	</g>
	<g>
		<polygon fill="#333333" points="119.385,148.675 160.371,35.579 201.355,148.675 		"/>
		<path fill="#C4FF00" d="M160.371,39.982l18.741,51.966l20.104,55.727h-38.845h-38.846l20.104-55.727L160.371,39.982
			 M160.371,31.177l-21.563,59.749l-21.562,59.749h43.125h43.124l-21.562-59.749L160.371,31.177L160.371,31.177z"/>
	</g>
	<g>
		<g>
			<polygon fill="#333333" points="2.142,148.675 5.05,140.675 103.602,140.675 106.51,148.675 			"/>
			<path fill="#C4FF00" d="M102.551,142.675l1.818,5H54.326H4.283l1.818-5h96.791 M104.652,139.675H3.999l-3.999,11h54.326h54.326
				L104.652,139.675L104.652,139.675z"/>
		</g>
		<g>
			<polygon fill="#333333" points="11.225,123.675 28.574,75.597 54.327,4.406 80.079,75.474 97.428,123.675 			"/>
			<path fill="#C4FF00" d="M54.328,8.812l24.338,67.416l16.628,46.446H13.361l16.623-46.317L54.328,8.812 M54.326,0L27.163,75.337
				L9.089,125.675h90.474L81.489,75.212L54.326,0L54.326,0z"/>
		</g>
	</g>
</g>
</svg>
